<svg width="1170" height="293" viewBox="0 0 1170 293" fill="none" xmlns="http://www.w3.org/2000/svg">
<g filter="url(#filter0_b_310_658)">
<rect width="1170" height="293" rx="20" transform="matrix(-1 0 0 1 1170 0)" fill="url(#paint0_linear_310_658)"/>
</g>
<path d="M100.312 88.496V122H118.072V116.672H107.032V88.496H100.312ZM133.767 100.496C137.223 100.496 140.007 102.704 140.103 106.208H127.479C128.007 102.56 130.551 100.496 133.767 100.496ZM146.391 113.648H139.143C138.279 115.424 136.695 116.864 133.815 116.864C130.455 116.864 127.767 114.656 127.431 110.72H146.871C147.015 109.856 147.063 108.992 147.063 108.128C147.063 100.208 141.639 94.976 133.959 94.976C126.087 94.976 120.615 100.304 120.615 108.704C120.615 117.056 126.231 122.432 133.959 122.432C140.535 122.432 144.951 118.544 146.391 113.648ZM153.024 113.744C153.024 119.84 156.432 122 161.52 122H165.744V116.336H162.624C160.512 116.336 159.792 115.568 159.792 113.792V100.928H165.744V95.408H159.792V88.832H153.024V95.408H149.856V100.928H153.024V113.744ZM173.794 100.592L178.978 88.496H171.922L169.186 100.592H173.794ZM204.436 114.416C204.244 104.672 189.508 107.696 189.508 102.848C189.508 101.312 190.804 100.304 193.3 100.304C195.94 100.304 197.572 101.696 197.764 103.76H204.196C203.812 98.48 199.924 94.976 193.492 94.976C186.916 94.976 182.98 98.528 182.98 102.944C182.98 112.688 198.004 109.664 198.004 114.416C198.004 115.952 196.564 117.152 193.924 117.152C191.236 117.152 189.364 115.616 189.124 113.6H182.356C182.644 118.544 187.3 122.432 193.972 122.432C200.452 122.432 204.436 118.976 204.436 114.416ZM222.446 113.744C222.446 119.84 225.854 122 230.942 122H235.166V116.336H232.046C229.934 116.336 229.214 115.568 229.214 113.792V100.928H235.166V95.408H229.214V88.832H222.446V95.408H219.278V100.928H222.446V113.744ZM246.72 108.752C246.72 103.616 249.12 102.08 253.104 102.08H254.88V95.024C251.184 95.024 248.4 96.8 246.72 99.536V95.408H240V122H246.72V108.752ZM270.734 113.984L263.87 95.408H256.334L266.99 121.328L261.23 134.576H268.382L284.846 95.408H277.694L270.734 113.984ZM325.586 108.704C325.586 100.304 319.586 94.976 311.906 94.976C304.226 94.976 298.226 100.304 298.226 108.704C298.226 117.056 304.034 122.432 311.714 122.432C319.442 122.432 325.586 117.056 325.586 108.704ZM305.042 108.704C305.042 103.376 308.258 100.832 311.81 100.832C315.362 100.832 318.674 103.376 318.674 108.704C318.674 113.984 315.266 116.576 311.714 116.576C308.114 116.576 305.042 113.984 305.042 108.704ZM355.619 95.408H348.851V110.048C348.851 114.32 346.547 116.624 342.899 116.624C339.347 116.624 336.995 114.32 336.995 110.048V95.408H330.275V111.008C330.275 118.304 334.739 122.336 340.931 122.336C344.243 122.336 347.171 120.896 348.851 118.64V122H355.619V95.408ZM368.97 108.752C368.97 103.616 371.37 102.08 375.354 102.08H377.13V95.024C373.434 95.024 370.65 96.8 368.97 99.536V95.408H362.25V122H368.97V108.752ZM413.733 114.416C413.541 104.672 398.805 107.696 398.805 102.848C398.805 101.312 400.101 100.304 402.597 100.304C405.237 100.304 406.869 101.696 407.061 103.76H413.493C413.109 98.48 409.221 94.976 402.789 94.976C396.213 94.976 392.277 98.528 392.277 102.944C392.277 112.688 407.301 109.664 407.301 114.416C407.301 115.952 405.861 117.152 403.221 117.152C400.533 117.152 398.661 115.616 398.421 113.6H391.653C391.941 118.544 396.597 122.432 403.269 122.432C409.749 122.432 413.733 118.976 413.733 114.416ZM430.674 100.496C434.13 100.496 436.914 102.704 437.01 106.208H424.386C424.914 102.56 427.458 100.496 430.674 100.496ZM443.298 113.648H436.05C435.186 115.424 433.602 116.864 430.722 116.864C427.362 116.864 424.674 114.656 424.338 110.72H443.778C443.922 109.856 443.97 108.992 443.97 108.128C443.97 100.208 438.546 94.976 430.866 94.976C422.993 94.976 417.521 100.304 417.521 108.704C417.521 117.056 423.138 122.432 430.866 122.432C437.442 122.432 441.858 118.544 443.298 113.648ZM455.595 108.752C455.595 103.616 457.995 102.08 461.979 102.08H463.755V95.024C460.059 95.024 457.275 96.8 455.595 99.536V95.408H448.875V122H455.595V108.752ZM465.449 95.408L475.241 122H483.401L493.241 95.408H486.089L479.369 115.808L472.649 95.408H465.449ZM497.015 122H503.735V95.408H497.015V122ZM500.423 92.24C502.775 92.24 504.551 90.512 504.551 88.304C504.551 86.096 502.775 84.368 500.423 84.368C498.023 84.368 496.295 86.096 496.295 88.304C496.295 90.512 498.023 92.24 500.423 92.24ZM508.646 108.704C508.646 117.056 514.118 122.432 521.799 122.432C528.423 122.432 532.887 118.688 534.327 113.024H527.079C526.263 115.424 524.535 116.672 521.751 116.672C518.007 116.672 515.511 113.888 515.511 108.704C515.511 103.52 518.007 100.688 521.751 100.688C524.535 100.688 526.311 102.128 527.079 104.384H534.327C532.887 98.432 528.423 94.976 521.799 94.976C514.118 94.976 508.646 100.352 508.646 108.704ZM550.674 100.496C554.13 100.496 556.914 102.704 557.01 106.208H544.386C544.914 102.56 547.458 100.496 550.674 100.496ZM563.298 113.648H556.05C555.186 115.424 553.602 116.864 550.722 116.864C547.362 116.864 544.674 114.656 544.338 110.72H563.778C563.922 109.856 563.97 108.992 563.97 108.128C563.97 100.208 558.546 94.976 550.866 94.976C542.993 94.976 537.521 100.304 537.521 108.704C537.521 117.056 543.138 122.432 550.866 122.432C557.442 122.432 561.858 118.544 563.298 113.648ZM598.936 122H605.656V106.4C605.656 99.056 601.24 95.024 595.048 95.024C591.64 95.024 588.76 96.464 587.032 98.72V95.408H580.312V122H587.032V107.312C587.032 103.04 589.384 100.736 593.032 100.736C596.584 100.736 598.936 103.04 598.936 107.312V122ZM637.726 108.704C637.726 100.304 631.726 94.976 624.046 94.976C616.366 94.976 610.366 100.304 610.366 108.704C610.366 117.056 616.174 122.432 623.854 122.432C631.582 122.432 637.726 117.056 637.726 108.704ZM617.182 108.704C617.182 103.376 620.398 100.832 623.95 100.832C627.502 100.832 630.814 103.376 630.814 108.704C630.814 113.984 627.406 116.576 623.854 116.576C620.254 116.576 617.182 113.984 617.182 108.704ZM647.504 122H654.8L659.648 103.424L664.496 122H671.744L679.52 95.408H673.088L668.384 115.616L663.392 95.408H656.288L651.2 115.664L646.496 95.408H639.68L647.504 122ZM685.412 111.104H691.076L691.844 87.92H684.596L685.412 111.104ZM692.468 118.4C692.468 116.192 690.74 114.464 688.388 114.464C685.94 114.464 684.212 116.192 684.212 118.4C684.212 120.608 685.94 122.336 688.388 122.336C690.74 122.336 692.468 120.608 692.468 118.4Z" fill="white"/>
<path d="M99.952 172.642V176.98H104.776V178.24H99.952V182.668H105.316V184H98.314V171.31H105.316V172.642H99.952ZM111.433 182.254L114.493 174.118H116.257L112.387 184H110.443L106.573 174.118H108.337L111.433 182.254ZM127.135 178.51C127.135 178.858 127.111 179.158 127.063 179.41H119.161C119.197 180.538 119.515 181.384 120.115 181.948C120.727 182.512 121.471 182.794 122.347 182.794C123.139 182.794 123.799 182.596 124.327 182.2C124.867 181.792 125.197 181.252 125.317 180.58H127.063C126.943 181.264 126.673 181.876 126.253 182.416C125.845 182.956 125.311 183.376 124.651 183.676C123.991 183.976 123.247 184.126 122.419 184.126C121.471 184.126 120.631 183.922 119.899 183.514C119.167 183.106 118.591 182.524 118.171 181.768C117.763 181 117.559 180.1 117.559 179.068C117.559 178.036 117.763 177.136 118.171 176.368C118.591 175.6 119.167 175.012 119.899 174.604C120.631 174.196 121.471 173.992 122.419 173.992C123.379 173.992 124.213 174.196 124.921 174.604C125.641 175.012 126.187 175.558 126.559 176.242C126.943 176.926 127.135 177.682 127.135 178.51ZM125.479 178.618C125.515 177.886 125.395 177.274 125.119 176.782C124.843 176.29 124.465 175.924 123.985 175.684C123.505 175.444 122.983 175.324 122.419 175.324C121.519 175.324 120.763 175.606 120.151 176.17C119.539 176.722 119.209 177.538 119.161 178.618H125.479ZM131.096 176.116C131.42 175.432 131.894 174.904 132.518 174.532C133.142 174.148 133.886 173.956 134.75 173.956V175.738H134.246C133.322 175.738 132.566 175.978 131.978 176.458C131.39 176.926 131.096 177.706 131.096 178.798V184H129.458V174.118H131.096V176.116ZM137.23 174.118L140.434 181.894L143.404 174.118H145.222L139.354 188.68H137.5L139.552 183.838L135.394 174.118H137.23ZM151.619 182.56V184H150.395C149.387 184 148.631 183.76 148.127 183.28C147.635 182.8 147.389 181.996 147.389 180.868V175.54H145.913V174.118H147.389V171.652H149.045V174.118H151.601V175.54H149.045V180.904C149.045 181.54 149.159 181.978 149.387 182.218C149.627 182.446 150.035 182.56 150.611 182.56H151.619ZM159 173.956C160.152 173.956 161.082 174.328 161.79 175.072C162.498 175.804 162.852 176.866 162.852 178.258V184H161.214V178.402C161.214 177.418 160.962 176.662 160.458 176.134C159.954 175.606 159.27 175.342 158.406 175.342C157.506 175.342 156.786 175.636 156.246 176.224C155.706 176.8 155.436 177.646 155.436 178.762V184H153.798V170.68H155.436V176.458C155.688 175.654 156.132 175.036 156.768 174.604C157.416 174.172 158.16 173.956 159 173.956ZM165.257 171.22C165.257 170.92 165.359 170.68 165.563 170.5C165.767 170.308 166.037 170.212 166.373 170.212C166.709 170.212 166.979 170.308 167.183 170.5C167.387 170.68 167.489 170.92 167.489 171.22C167.489 171.52 167.387 171.766 167.183 171.958C166.979 172.138 166.709 172.228 166.373 172.228C166.037 172.228 165.767 172.138 165.563 171.958C165.359 171.766 165.257 171.52 165.257 171.22ZM167.183 174.118V184H165.545V174.118H167.183ZM175.198 173.956C176.35 173.956 177.28 174.328 177.988 175.072C178.696 175.804 179.05 176.866 179.05 178.258V184H177.412V178.402C177.412 177.418 177.16 176.662 176.656 176.134C176.152 175.606 175.468 175.342 174.604 175.342C173.704 175.342 172.984 175.636 172.444 176.224C171.904 176.8 171.634 177.646 171.634 178.762V184H169.996V174.118H171.634V176.458C171.886 175.654 172.33 175.036 172.966 174.604C173.614 174.172 174.358 173.956 175.198 173.956ZM185.793 173.992C186.753 173.992 187.563 174.232 188.223 174.712C188.895 175.192 189.363 175.834 189.627 176.638V174.118H191.265V184.162C191.265 185.074 191.073 185.884 190.689 186.592C190.305 187.3 189.765 187.852 189.069 188.248C188.373 188.644 187.563 188.842 186.639 188.842C185.307 188.842 184.221 188.518 183.381 187.87C182.541 187.234 182.007 186.37 181.779 185.278H183.399C183.591 185.938 183.951 186.454 184.479 186.826C185.019 187.21 185.709 187.402 186.549 187.402C187.437 187.402 188.169 187.114 188.745 186.538C189.333 185.974 189.627 185.182 189.627 184.162V181.48C189.363 182.284 188.895 182.926 188.223 183.406C187.563 183.886 186.753 184.126 185.793 184.126C184.917 184.126 184.137 183.922 183.453 183.514C182.769 183.106 182.229 182.524 181.833 181.768C181.449 181 181.257 180.1 181.257 179.068C181.257 178.036 181.449 177.136 181.833 176.368C182.229 175.6 182.769 175.012 183.453 174.604C184.137 174.196 184.917 173.992 185.793 173.992ZM186.261 175.45C185.253 175.45 184.443 175.774 183.831 176.422C183.231 177.058 182.931 177.94 182.931 179.068C182.931 180.196 183.231 181.084 183.831 181.732C184.443 182.368 185.253 182.686 186.261 182.686C186.909 182.686 187.485 182.536 187.989 182.236C188.505 181.936 188.907 181.516 189.195 180.976C189.483 180.424 189.627 179.788 189.627 179.068C189.627 178.348 189.483 177.712 189.195 177.16C188.907 176.608 188.505 176.188 187.989 175.9C187.485 175.6 186.909 175.45 186.261 175.45ZM199.363 174.118L202.567 181.894L205.537 174.118H207.355L201.487 188.68H199.633L201.685 183.838L197.527 174.118H199.363ZM213.519 173.992C214.467 173.992 215.313 174.196 216.057 174.604C216.813 175.012 217.401 175.6 217.821 176.368C218.253 177.136 218.469 178.036 218.469 179.068C218.469 180.1 218.253 181 217.821 181.768C217.401 182.524 216.813 183.106 216.057 183.514C215.313 183.922 214.467 184.126 213.519 184.126C212.571 184.126 211.719 183.922 210.963 183.514C210.219 183.106 209.631 182.524 209.199 181.768C208.767 181 208.551 180.1 208.551 179.068C208.551 178.036 208.767 177.136 209.199 176.368C209.631 175.6 210.219 175.012 210.963 174.604C211.719 174.196 212.571 173.992 213.519 173.992ZM213.519 175.432C212.931 175.432 212.385 175.564 211.881 175.828C211.389 176.092 210.987 176.5 210.675 177.052C210.375 177.592 210.225 178.264 210.225 179.068C210.225 179.86 210.375 180.532 210.675 181.084C210.987 181.624 211.389 182.026 211.881 182.29C212.385 182.554 212.931 182.686 213.519 182.686C214.107 182.686 214.647 182.554 215.139 182.29C215.643 182.026 216.045 181.624 216.345 181.084C216.657 180.532 216.813 179.86 216.813 179.068C216.813 178.264 216.657 177.592 216.345 177.052C216.045 176.5 215.643 176.092 215.139 175.828C214.647 175.564 214.107 175.432 213.519 175.432ZM229.567 174.118V184H227.929V181.678C227.677 182.482 227.227 183.1 226.579 183.532C225.943 183.952 225.199 184.162 224.347 184.162C223.207 184.162 222.283 183.796 221.575 183.064C220.867 182.32 220.513 181.258 220.513 179.878V174.118H222.151V179.716C222.151 180.7 222.403 181.462 222.907 182.002C223.411 182.53 224.095 182.794 224.959 182.794C225.859 182.794 226.579 182.506 227.119 181.93C227.659 181.342 227.929 180.49 227.929 179.374V174.118H229.567ZM242.2 173.956C243.352 173.956 244.282 174.328 244.99 175.072C245.698 175.804 246.052 176.866 246.052 178.258V184H244.414V178.402C244.414 177.418 244.162 176.662 243.658 176.134C243.154 175.606 242.47 175.342 241.606 175.342C240.706 175.342 239.986 175.636 239.446 176.224C238.906 176.8 238.636 177.646 238.636 178.762V184H236.998V174.118H238.636V176.458C238.888 175.654 239.332 175.036 239.968 174.604C240.616 174.172 241.36 173.956 242.2 173.956ZM257.835 178.51C257.835 178.858 257.811 179.158 257.763 179.41H249.861C249.897 180.538 250.215 181.384 250.815 181.948C251.427 182.512 252.171 182.794 253.047 182.794C253.839 182.794 254.499 182.596 255.027 182.2C255.567 181.792 255.897 181.252 256.017 180.58H257.763C257.643 181.264 257.373 181.876 256.953 182.416C256.545 182.956 256.011 183.376 255.351 183.676C254.691 183.976 253.947 184.126 253.119 184.126C252.171 184.126 251.331 183.922 250.599 183.514C249.867 183.106 249.291 182.524 248.871 181.768C248.463 181 248.259 180.1 248.259 179.068C248.259 178.036 248.463 177.136 248.871 176.368C249.291 175.6 249.867 175.012 250.599 174.604C251.331 174.196 252.171 173.992 253.119 173.992C254.079 173.992 254.913 174.196 255.621 174.604C256.341 175.012 256.887 175.558 257.259 176.242C257.643 176.926 257.835 177.682 257.835 178.51ZM256.179 178.618C256.215 177.886 256.095 177.274 255.819 176.782C255.543 176.29 255.165 175.924 254.685 175.684C254.205 175.444 253.683 175.324 253.119 175.324C252.219 175.324 251.463 175.606 250.851 176.17C250.239 176.722 249.909 177.538 249.861 178.618H256.179ZM269.247 178.51C269.247 178.858 269.223 179.158 269.175 179.41H261.273C261.309 180.538 261.627 181.384 262.227 181.948C262.839 182.512 263.583 182.794 264.459 182.794C265.251 182.794 265.911 182.596 266.439 182.2C266.979 181.792 267.309 181.252 267.429 180.58H269.175C269.055 181.264 268.785 181.876 268.365 182.416C267.957 182.956 267.423 183.376 266.763 183.676C266.103 183.976 265.359 184.126 264.531 184.126C263.583 184.126 262.743 183.922 262.011 183.514C261.279 183.106 260.703 182.524 260.283 181.768C259.875 181 259.671 180.1 259.671 179.068C259.671 178.036 259.875 177.136 260.283 176.368C260.703 175.6 261.279 175.012 262.011 174.604C262.743 174.196 263.583 173.992 264.531 173.992C265.491 173.992 266.325 174.196 267.033 174.604C267.753 175.012 268.299 175.558 268.671 176.242C269.055 176.926 269.247 177.682 269.247 178.51ZM267.591 178.618C267.627 177.886 267.507 177.274 267.231 176.782C266.955 176.29 266.577 175.924 266.097 175.684C265.617 175.444 265.095 175.324 264.531 175.324C263.631 175.324 262.875 175.606 262.263 176.17C261.651 176.722 261.321 177.538 261.273 178.618H267.591ZM275.62 173.992C276.58 173.992 277.39 174.232 278.05 174.712C278.722 175.192 279.19 175.834 279.454 176.638V170.68H281.092V184H279.454V181.48C279.19 182.284 278.722 182.926 278.05 183.406C277.39 183.886 276.58 184.126 275.62 184.126C274.744 184.126 273.964 183.922 273.28 183.514C272.596 183.106 272.056 182.524 271.66 181.768C271.276 181 271.084 180.1 271.084 179.068C271.084 178.036 271.276 177.136 271.66 176.368C272.056 175.6 272.596 175.012 273.28 174.604C273.964 174.196 274.744 173.992 275.62 173.992ZM276.088 175.45C275.08 175.45 274.27 175.774 273.658 176.422C273.058 177.058 272.758 177.94 272.758 179.068C272.758 180.196 273.058 181.084 273.658 181.732C274.27 182.368 275.08 182.686 276.088 182.686C276.736 182.686 277.312 182.536 277.816 182.236C278.332 181.936 278.734 181.516 279.022 180.976C279.31 180.424 279.454 179.788 279.454 179.068C279.454 178.348 279.31 177.712 279.022 177.16C278.734 176.608 278.332 176.188 277.816 175.9C277.312 175.6 276.736 175.45 276.088 175.45ZM293.222 182.56V184H291.998C290.99 184 290.234 183.76 289.73 183.28C289.238 182.8 288.992 181.996 288.992 180.868V175.54H287.516V174.118H288.992V171.652H290.648V174.118H293.204V175.54H290.648V180.904C290.648 181.54 290.762 181.978 290.99 182.218C291.23 182.446 291.638 182.56 292.214 182.56H293.222ZM299.883 173.992C300.831 173.992 301.677 174.196 302.421 174.604C303.177 175.012 303.765 175.6 304.185 176.368C304.617 177.136 304.833 178.036 304.833 179.068C304.833 180.1 304.617 181 304.185 181.768C303.765 182.524 303.177 183.106 302.421 183.514C301.677 183.922 300.831 184.126 299.883 184.126C298.935 184.126 298.083 183.922 297.327 183.514C296.583 183.106 295.995 182.524 295.563 181.768C295.131 181 294.915 180.1 294.915 179.068C294.915 178.036 295.131 177.136 295.563 176.368C295.995 175.6 296.583 175.012 297.327 174.604C298.083 174.196 298.935 173.992 299.883 173.992ZM299.883 175.432C299.295 175.432 298.749 175.564 298.245 175.828C297.753 176.092 297.351 176.5 297.039 177.052C296.739 177.592 296.589 178.264 296.589 179.068C296.589 179.86 296.739 180.532 297.039 181.084C297.351 181.624 297.753 182.026 298.245 182.29C298.749 182.554 299.295 182.686 299.883 182.686C300.471 182.686 301.011 182.554 301.503 182.29C302.007 182.026 302.409 181.624 302.709 181.084C303.021 180.532 303.177 179.86 303.177 179.068C303.177 178.264 303.021 177.592 302.709 177.052C302.409 176.5 302.007 176.092 301.503 175.828C301.011 175.564 300.471 175.432 299.883 175.432ZM315.824 173.992C316.784 173.992 317.594 174.232 318.254 174.712C318.926 175.192 319.394 175.834 319.658 176.638V174.118H321.296V184H319.658V181.48C319.394 182.284 318.926 182.926 318.254 183.406C317.594 183.886 316.784 184.126 315.824 184.126C314.948 184.126 314.168 183.922 313.484 183.514C312.8 183.106 312.26 182.524 311.864 181.768C311.48 181 311.288 180.1 311.288 179.068C311.288 178.036 311.48 177.136 311.864 176.368C312.26 175.6 312.8 175.012 313.484 174.604C314.168 174.196 314.948 173.992 315.824 173.992ZM316.292 175.45C315.284 175.45 314.474 175.774 313.862 176.422C313.262 177.058 312.962 177.94 312.962 179.068C312.962 180.196 313.262 181.084 313.862 181.732C314.474 182.368 315.284 182.686 316.292 182.686C316.94 182.686 317.516 182.536 318.02 182.236C318.536 181.936 318.938 181.516 319.226 180.976C319.514 180.424 319.658 179.788 319.658 179.068C319.658 178.348 319.514 177.712 319.226 177.16C318.938 176.608 318.536 176.188 318.02 175.9C317.516 175.6 316.94 175.45 316.292 175.45ZM328.457 173.992C329.717 173.992 330.761 174.328 331.589 175C332.417 175.672 332.927 176.572 333.119 177.7H331.391C331.271 176.992 330.941 176.44 330.401 176.044C329.873 175.636 329.213 175.432 328.421 175.432C327.845 175.432 327.317 175.564 326.837 175.828C326.369 176.092 325.991 176.5 325.703 177.052C325.415 177.592 325.271 178.264 325.271 179.068C325.271 179.872 325.415 180.55 325.703 181.102C325.991 181.642 326.369 182.044 326.837 182.308C327.317 182.572 327.845 182.704 328.421 182.704C329.213 182.704 329.873 182.5 330.401 182.092C330.941 181.684 331.271 181.126 331.391 180.418H333.119C332.927 181.558 332.417 182.464 331.589 183.136C330.761 183.796 329.717 184.126 328.457 184.126C327.509 184.126 326.669 183.922 325.937 183.514C325.205 183.106 324.629 182.524 324.209 181.768C323.801 181 323.597 180.1 323.597 179.068C323.597 178.036 323.801 177.136 324.209 176.368C324.629 175.6 325.205 175.012 325.937 174.604C326.669 174.196 327.509 173.992 328.457 173.992ZM339.817 173.992C341.077 173.992 342.121 174.328 342.949 175C343.777 175.672 344.287 176.572 344.479 177.7H342.751C342.631 176.992 342.301 176.44 341.761 176.044C341.233 175.636 340.573 175.432 339.781 175.432C339.205 175.432 338.677 175.564 338.197 175.828C337.729 176.092 337.351 176.5 337.063 177.052C336.775 177.592 336.631 178.264 336.631 179.068C336.631 179.872 336.775 180.55 337.063 181.102C337.351 181.642 337.729 182.044 338.197 182.308C338.677 182.572 339.205 182.704 339.781 182.704C340.573 182.704 341.233 182.5 341.761 182.092C342.301 181.684 342.631 181.126 342.751 180.418H344.479C344.287 181.558 343.777 182.464 342.949 183.136C342.121 183.796 341.077 184.126 339.817 184.126C338.869 184.126 338.029 183.922 337.297 183.514C336.565 183.106 335.989 182.524 335.569 181.768C335.161 181 334.957 180.1 334.957 179.068C334.957 178.036 335.161 177.136 335.569 176.368C335.989 175.6 336.565 175.012 337.297 174.604C338.029 174.196 338.869 173.992 339.817 173.992ZM355.893 178.51C355.893 178.858 355.869 179.158 355.821 179.41H347.919C347.955 180.538 348.273 181.384 348.873 181.948C349.485 182.512 350.229 182.794 351.105 182.794C351.897 182.794 352.557 182.596 353.085 182.2C353.625 181.792 353.955 181.252 354.075 180.58H355.821C355.701 181.264 355.431 181.876 355.011 182.416C354.603 182.956 354.069 183.376 353.409 183.676C352.749 183.976 352.005 184.126 351.177 184.126C350.229 184.126 349.389 183.922 348.657 183.514C347.925 183.106 347.349 182.524 346.929 181.768C346.521 181 346.317 180.1 346.317 179.068C346.317 178.036 346.521 177.136 346.929 176.368C347.349 175.6 347.925 175.012 348.657 174.604C349.389 174.196 350.229 173.992 351.177 173.992C352.137 173.992 352.971 174.196 353.679 174.604C354.399 175.012 354.945 175.558 355.317 176.242C355.701 176.926 355.893 177.682 355.893 178.51ZM354.237 178.618C354.273 177.886 354.153 177.274 353.877 176.782C353.601 176.29 353.223 175.924 352.743 175.684C352.263 175.444 351.741 175.324 351.177 175.324C350.277 175.324 349.521 175.606 348.909 176.17C348.297 176.722 347.967 177.538 347.919 178.618H354.237ZM363.669 173.992C364.545 173.992 365.325 174.196 366.009 174.604C366.693 175.012 367.227 175.6 367.611 176.368C368.007 177.136 368.205 178.036 368.205 179.068C368.205 180.1 368.007 181 367.611 181.768C367.227 182.524 366.693 183.106 366.009 183.514C365.325 183.922 364.545 184.126 363.669 184.126C362.709 184.126 361.893 183.886 361.221 183.406C360.561 182.914 360.105 182.272 359.853 181.48V188.68H358.215V174.118H359.853V176.638C360.105 175.846 360.561 175.21 361.221 174.73C361.893 174.238 362.709 173.992 363.669 173.992ZM363.201 175.45C362.565 175.45 361.989 175.6 361.473 175.9C360.957 176.188 360.555 176.608 360.267 177.16C359.979 177.712 359.835 178.348 359.835 179.068C359.835 179.788 359.979 180.424 360.267 180.976C360.555 181.516 360.957 181.936 361.473 182.236C361.989 182.536 362.565 182.686 363.201 182.686C364.221 182.686 365.031 182.368 365.631 181.732C366.243 181.084 366.549 180.196 366.549 179.068C366.549 177.94 366.243 177.058 365.631 176.422C365.031 175.774 364.221 175.45 363.201 175.45ZM375.24 182.56V184H374.016C373.008 184 372.252 183.76 371.748 183.28C371.256 182.8 371.01 181.996 371.01 180.868V175.54H369.534V174.118H371.01V171.652H372.666V174.118H375.222V175.54H372.666V180.904C372.666 181.54 372.78 181.978 373.008 182.218C373.248 182.446 373.656 182.56 374.232 182.56H375.24ZM386.42 173.992C387.68 173.992 388.724 174.328 389.552 175C390.38 175.672 390.89 176.572 391.082 177.7H389.354C389.234 176.992 388.904 176.44 388.364 176.044C387.836 175.636 387.176 175.432 386.384 175.432C385.808 175.432 385.28 175.564 384.8 175.828C384.332 176.092 383.954 176.5 383.666 177.052C383.378 177.592 383.234 178.264 383.234 179.068C383.234 179.872 383.378 180.55 383.666 181.102C383.954 181.642 384.332 182.044 384.8 182.308C385.28 182.572 385.808 182.704 386.384 182.704C387.176 182.704 387.836 182.5 388.364 182.092C388.904 181.684 389.234 181.126 389.354 180.418H391.082C390.89 181.558 390.38 182.464 389.552 183.136C388.724 183.796 387.68 184.126 386.42 184.126C385.472 184.126 384.632 183.922 383.9 183.514C383.168 183.106 382.592 182.524 382.172 181.768C381.764 181 381.56 180.1 381.56 179.068C381.56 178.036 381.764 177.136 382.172 176.368C382.592 175.6 383.168 175.012 383.9 174.604C384.632 174.196 385.472 173.992 386.42 173.992ZM397.456 173.992C398.416 173.992 399.226 174.232 399.886 174.712C400.558 175.192 401.026 175.834 401.29 176.638V174.118H402.928V184H401.29V181.48C401.026 182.284 400.558 182.926 399.886 183.406C399.226 183.886 398.416 184.126 397.456 184.126C396.58 184.126 395.8 183.922 395.116 183.514C394.432 183.106 393.892 182.524 393.496 181.768C393.112 181 392.92 180.1 392.92 179.068C392.92 178.036 393.112 177.136 393.496 176.368C393.892 175.6 394.432 175.012 395.116 174.604C395.8 174.196 396.58 173.992 397.456 173.992ZM397.924 175.45C396.916 175.45 396.106 175.774 395.494 176.422C394.894 177.058 394.594 177.94 394.594 179.068C394.594 180.196 394.894 181.084 395.494 181.732C396.106 182.368 396.916 182.686 397.924 182.686C398.572 182.686 399.148 182.536 399.652 182.236C400.168 181.936 400.57 181.516 400.858 180.976C401.146 180.424 401.29 179.788 401.29 179.068C401.29 178.348 401.146 177.712 400.858 177.16C400.57 176.608 400.168 176.188 399.652 175.9C399.148 175.6 398.572 175.45 397.924 175.45ZM407.353 176.116C407.677 175.432 408.151 174.904 408.775 174.532C409.399 174.148 410.143 173.956 411.007 173.956V175.738H410.503C409.579 175.738 408.823 175.978 408.235 176.458C407.647 176.926 407.353 177.706 407.353 178.798V184H405.715V174.118H407.353V176.116ZM416.853 173.992C417.813 173.992 418.623 174.232 419.283 174.712C419.955 175.192 420.423 175.834 420.687 176.638V170.68H422.325V184H420.687V181.48C420.423 182.284 419.955 182.926 419.283 183.406C418.623 183.886 417.813 184.126 416.853 184.126C415.977 184.126 415.197 183.922 414.513 183.514C413.829 183.106 413.289 182.524 412.893 181.768C412.509 181 412.317 180.1 412.317 179.068C412.317 178.036 412.509 177.136 412.893 176.368C413.289 175.6 413.829 175.012 414.513 174.604C415.197 174.196 415.977 173.992 416.853 173.992ZM417.321 175.45C416.313 175.45 415.503 175.774 414.891 176.422C414.291 177.058 413.991 177.94 413.991 179.068C413.991 180.196 414.291 181.084 414.891 181.732C415.503 182.368 416.313 182.686 417.321 182.686C417.969 182.686 418.545 182.536 419.049 182.236C419.565 181.936 419.967 181.516 420.255 180.976C420.543 180.424 420.687 179.788 420.687 179.068C420.687 178.348 420.543 177.712 420.255 177.16C419.967 176.608 419.565 176.188 419.049 175.9C418.545 175.6 417.969 175.45 417.321 175.45ZM435.193 173.992C436.069 173.992 436.849 174.196 437.533 174.604C438.217 175.012 438.751 175.6 439.135 176.368C439.531 177.136 439.729 178.036 439.729 179.068C439.729 180.1 439.531 181 439.135 181.768C438.751 182.524 438.217 183.106 437.533 183.514C436.849 183.922 436.069 184.126 435.193 184.126C434.233 184.126 433.417 183.886 432.745 183.406C432.085 182.914 431.629 182.272 431.377 181.48V188.68H429.739V174.118H431.377V176.638C431.629 175.846 432.085 175.21 432.745 174.73C433.417 174.238 434.233 173.992 435.193 173.992ZM434.725 175.45C434.089 175.45 433.513 175.6 432.997 175.9C432.481 176.188 432.079 176.608 431.791 177.16C431.503 177.712 431.359 178.348 431.359 179.068C431.359 179.788 431.503 180.424 431.791 180.976C432.079 181.516 432.481 181.936 432.997 182.236C433.513 182.536 434.089 182.686 434.725 182.686C435.745 182.686 436.555 182.368 437.155 181.732C437.767 181.084 438.073 180.196 438.073 179.068C438.073 177.94 437.767 177.058 437.155 176.422C436.555 175.774 435.745 175.45 434.725 175.45ZM446.098 173.992C447.058 173.992 447.868 174.232 448.528 174.712C449.2 175.192 449.668 175.834 449.932 176.638V174.118H451.57V184H449.932V181.48C449.668 182.284 449.2 182.926 448.528 183.406C447.868 183.886 447.058 184.126 446.098 184.126C445.222 184.126 444.442 183.922 443.758 183.514C443.074 183.106 442.534 182.524 442.138 181.768C441.754 181 441.562 180.1 441.562 179.068C441.562 178.036 441.754 177.136 442.138 176.368C442.534 175.6 443.074 175.012 443.758 174.604C444.442 174.196 445.222 173.992 446.098 173.992ZM446.566 175.45C445.558 175.45 444.748 175.774 444.136 176.422C443.536 177.058 443.236 177.94 443.236 179.068C443.236 180.196 443.536 181.084 444.136 181.732C444.748 182.368 445.558 182.686 446.566 182.686C447.214 182.686 447.79 182.536 448.294 182.236C448.81 181.936 449.212 181.516 449.5 180.976C449.788 180.424 449.932 179.788 449.932 179.068C449.932 178.348 449.788 177.712 449.5 177.16C449.212 176.608 448.81 176.188 448.294 175.9C447.79 175.6 447.214 175.45 446.566 175.45ZM455.041 174.118L458.245 181.894L461.215 174.118H463.033L457.165 188.68H455.311L457.363 183.838L453.205 174.118H455.041ZM476.865 173.956C478.017 173.956 478.941 174.328 479.637 175.072C480.345 175.804 480.699 176.866 480.699 178.258V184H479.061V178.402C479.061 177.43 478.821 176.686 478.341 176.17C477.873 175.654 477.225 175.396 476.397 175.396C475.533 175.396 474.837 175.684 474.309 176.26C473.793 176.824 473.535 177.658 473.535 178.762V184H471.897V178.402C471.897 177.43 471.657 176.686 471.177 176.17C470.697 175.654 470.049 175.396 469.233 175.396C468.357 175.396 467.655 175.684 467.127 176.26C466.611 176.824 466.353 177.658 466.353 178.762V184H464.715V174.118H466.353V176.368C466.593 175.588 467.019 174.994 467.631 174.586C468.255 174.166 468.969 173.956 469.773 173.956C470.613 173.956 471.339 174.172 471.951 174.604C472.575 175.024 473.019 175.648 473.283 176.476C473.559 175.672 474.021 175.054 474.669 174.622C475.317 174.178 476.049 173.956 476.865 173.956ZM492.512 178.51C492.512 178.858 492.488 179.158 492.44 179.41H484.538C484.574 180.538 484.892 181.384 485.492 181.948C486.104 182.512 486.848 182.794 487.724 182.794C488.516 182.794 489.176 182.596 489.704 182.2C490.244 181.792 490.574 181.252 490.694 180.58H492.44C492.32 181.264 492.05 181.876 491.63 182.416C491.222 182.956 490.688 183.376 490.028 183.676C489.368 183.976 488.624 184.126 487.796 184.126C486.848 184.126 486.008 183.922 485.276 183.514C484.544 183.106 483.968 182.524 483.548 181.768C483.14 181 482.936 180.1 482.936 179.068C482.936 178.036 483.14 177.136 483.548 176.368C483.968 175.6 484.544 175.012 485.276 174.604C486.008 174.196 486.848 173.992 487.796 173.992C488.756 173.992 489.59 174.196 490.298 174.604C491.018 175.012 491.564 175.558 491.936 176.242C492.32 176.926 492.512 177.682 492.512 178.51ZM490.856 178.618C490.892 177.886 490.772 177.274 490.496 176.782C490.22 176.29 489.842 175.924 489.362 175.684C488.882 175.444 488.36 175.324 487.796 175.324C486.896 175.324 486.14 175.606 485.528 176.17C484.916 176.722 484.586 177.538 484.538 178.618H490.856ZM500.036 173.956C501.188 173.956 502.118 174.328 502.826 175.072C503.534 175.804 503.888 176.866 503.888 178.258V184H502.25V178.402C502.25 177.418 501.998 176.662 501.494 176.134C500.99 175.606 500.306 175.342 499.442 175.342C498.542 175.342 497.822 175.636 497.282 176.224C496.742 176.8 496.472 177.646 496.472 178.762V184H494.834V174.118H496.472V176.458C496.724 175.654 497.168 175.036 497.804 174.604C498.452 174.172 499.196 173.956 500.036 173.956ZM511.297 182.56V184H510.073C509.065 184 508.309 183.76 507.805 183.28C507.313 182.8 507.067 181.996 507.067 180.868V175.54H505.591V174.118H507.067V171.652H508.723V174.118H511.279V175.54H508.723V180.904C508.723 181.54 508.837 181.978 509.065 182.218C509.305 182.446 509.713 182.56 510.289 182.56H511.297ZM516.572 173.992C517.688 173.992 518.582 174.286 519.254 174.874C519.938 175.45 520.352 176.23 520.496 177.214H518.93C518.858 176.626 518.612 176.146 518.192 175.774C517.784 175.39 517.232 175.198 516.536 175.198C515.948 175.198 515.486 175.342 515.15 175.63C514.826 175.906 514.664 176.284 514.664 176.764C514.664 177.124 514.772 177.418 514.988 177.646C515.216 177.862 515.492 178.03 515.816 178.15C516.152 178.258 516.608 178.378 517.184 178.51C517.916 178.678 518.504 178.852 518.948 179.032C519.404 179.2 519.788 179.476 520.1 179.86C520.424 180.244 520.586 180.76 520.586 181.408C520.586 182.212 520.28 182.866 519.668 183.37C519.068 183.874 518.264 184.126 517.256 184.126C516.08 184.126 515.12 183.844 514.376 183.28C513.632 182.716 513.194 181.93 513.062 180.922H514.646C514.706 181.522 514.964 182.008 515.42 182.38C515.888 182.752 516.5 182.938 517.256 182.938C517.82 182.938 518.258 182.794 518.57 182.506C518.894 182.218 519.056 181.84 519.056 181.372C519.056 180.988 518.942 180.682 518.714 180.454C518.486 180.226 518.204 180.052 517.868 179.932C517.532 179.812 517.07 179.686 516.482 179.554C515.75 179.386 515.162 179.218 514.718 179.05C514.286 178.882 513.914 178.618 513.602 178.258C513.302 177.886 513.152 177.388 513.152 176.764C513.152 175.936 513.458 175.27 514.07 174.766C514.682 174.25 515.516 173.992 516.572 173.992ZM102.364 202.992C103.324 202.992 104.134 203.232 104.794 203.712C105.466 204.192 105.934 204.834 106.198 205.638V203.118H107.836V213H106.198V210.48C105.934 211.284 105.466 211.926 104.794 212.406C104.134 212.886 103.324 213.126 102.364 213.126C101.488 213.126 100.708 212.922 100.024 212.514C99.34 212.106 98.8 211.524 98.404 210.768C98.02 210 97.828 209.1 97.828 208.068C97.828 207.036 98.02 206.136 98.404 205.368C98.8 204.6 99.34 204.012 100.024 203.604C100.708 203.196 101.488 202.992 102.364 202.992ZM102.832 204.45C101.824 204.45 101.014 204.774 100.402 205.422C99.802 206.058 99.502 206.94 99.502 208.068C99.502 209.196 99.802 210.084 100.402 210.732C101.014 211.368 101.824 211.686 102.832 211.686C103.48 211.686 104.056 211.536 104.56 211.236C105.076 210.936 105.478 210.516 105.766 209.976C106.054 209.424 106.198 208.788 106.198 208.068C106.198 207.348 106.054 206.712 105.766 206.16C105.478 205.608 105.076 205.188 104.56 204.9C104.056 204.6 103.48 204.45 102.832 204.45ZM115.825 202.956C116.977 202.956 117.907 203.328 118.615 204.072C119.323 204.804 119.677 205.866 119.677 207.258V213H118.039V207.402C118.039 206.418 117.787 205.662 117.283 205.134C116.779 204.606 116.095 204.342 115.231 204.342C114.331 204.342 113.611 204.636 113.071 205.224C112.531 205.8 112.261 206.646 112.261 207.762V213H110.623V203.118H112.261V205.458C112.513 204.654 112.957 204.036 113.593 203.604C114.241 203.172 114.985 202.956 115.825 202.956ZM126.419 202.992C127.379 202.992 128.189 203.232 128.849 203.712C129.521 204.192 129.989 204.834 130.253 205.638V199.68H131.891V213H130.253V210.48C129.989 211.284 129.521 211.926 128.849 212.406C128.189 212.886 127.379 213.126 126.419 213.126C125.543 213.126 124.763 212.922 124.079 212.514C123.395 212.106 122.855 211.524 122.459 210.768C122.075 210 121.883 209.1 121.883 208.068C121.883 207.036 122.075 206.136 122.459 205.368C122.855 204.6 123.395 204.012 124.079 203.604C124.763 203.196 125.543 202.992 126.419 202.992ZM126.887 204.45C125.879 204.45 125.069 204.774 124.457 205.422C123.857 206.058 123.557 206.94 123.557 208.068C123.557 209.196 123.857 210.084 124.457 210.732C125.069 211.368 125.879 211.686 126.887 211.686C127.535 211.686 128.111 211.536 128.615 211.236C129.131 210.936 129.533 210.516 129.821 209.976C130.109 209.424 130.253 208.788 130.253 208.068C130.253 207.348 130.109 206.712 129.821 206.16C129.533 205.608 129.131 205.188 128.615 204.9C128.111 204.6 127.535 204.45 126.887 204.45ZM143.355 202.992C144.315 202.992 145.125 203.232 145.785 203.712C146.457 204.192 146.925 204.834 147.189 205.638V203.118H148.827V213.162C148.827 214.074 148.635 214.884 148.251 215.592C147.867 216.3 147.327 216.852 146.631 217.248C145.935 217.644 145.125 217.842 144.201 217.842C142.869 217.842 141.783 217.518 140.943 216.87C140.103 216.234 139.569 215.37 139.341 214.278H140.961C141.153 214.938 141.513 215.454 142.041 215.826C142.581 216.21 143.271 216.402 144.111 216.402C144.999 216.402 145.731 216.114 146.307 215.538C146.895 214.974 147.189 214.182 147.189 213.162V210.48C146.925 211.284 146.457 211.926 145.785 212.406C145.125 212.886 144.315 213.126 143.355 213.126C142.479 213.126 141.699 212.922 141.015 212.514C140.331 212.106 139.791 211.524 139.395 210.768C139.011 210 138.819 209.1 138.819 208.068C138.819 207.036 139.011 206.136 139.395 205.368C139.791 204.6 140.331 204.012 141.015 203.604C141.699 203.196 142.479 202.992 143.355 202.992ZM143.823 204.45C142.815 204.45 142.005 204.774 141.393 205.422C140.793 206.058 140.493 206.94 140.493 208.068C140.493 209.196 140.793 210.084 141.393 210.732C142.005 211.368 142.815 211.686 143.823 211.686C144.471 211.686 145.047 211.536 145.551 211.236C146.067 210.936 146.469 210.516 146.757 209.976C147.045 209.424 147.189 208.788 147.189 208.068C147.189 207.348 147.045 206.712 146.757 206.16C146.469 205.608 146.067 205.188 145.551 204.9C145.047 204.6 144.471 204.45 143.823 204.45ZM153.252 205.116C153.576 204.432 154.05 203.904 154.674 203.532C155.298 203.148 156.042 202.956 156.906 202.956V204.738H156.402C155.478 204.738 154.722 204.978 154.134 205.458C153.546 205.926 153.252 206.706 153.252 207.798V213H151.614V203.118H153.252V205.116ZM163.185 202.992C164.133 202.992 164.979 203.196 165.723 203.604C166.479 204.012 167.067 204.6 167.487 205.368C167.919 206.136 168.135 207.036 168.135 208.068C168.135 209.1 167.919 210 167.487 210.768C167.067 211.524 166.479 212.106 165.723 212.514C164.979 212.922 164.133 213.126 163.185 213.126C162.237 213.126 161.385 212.922 160.629 212.514C159.885 212.106 159.297 211.524 158.865 210.768C158.433 210 158.217 209.1 158.217 208.068C158.217 207.036 158.433 206.136 158.865 205.368C159.297 204.6 159.885 204.012 160.629 203.604C161.385 203.196 162.237 202.992 163.185 202.992ZM163.185 204.432C162.597 204.432 162.051 204.564 161.547 204.828C161.055 205.092 160.653 205.5 160.341 206.052C160.041 206.592 159.891 207.264 159.891 208.068C159.891 208.86 160.041 209.532 160.341 210.084C160.653 210.624 161.055 211.026 161.547 211.29C162.051 211.554 162.597 211.686 163.185 211.686C163.773 211.686 164.313 211.554 164.805 211.29C165.309 211.026 165.711 210.624 166.011 210.084C166.323 209.532 166.479 208.86 166.479 208.068C166.479 207.264 166.323 206.592 166.011 206.052C165.711 205.5 165.309 205.092 164.805 204.828C164.313 204.564 163.773 204.432 163.185 204.432ZM184.021 203.118L181.177 213H179.413L176.695 204.954L173.959 213H172.177L169.369 203.118H171.025L173.131 211.434L175.867 203.118H177.577L180.331 211.416L182.455 203.118H184.021ZM191.04 203.118L194.244 210.894L197.214 203.118H199.032L193.164 217.68H191.31L193.362 212.838L189.204 203.118H191.04ZM205.196 202.992C206.144 202.992 206.99 203.196 207.734 203.604C208.49 204.012 209.078 204.6 209.498 205.368C209.93 206.136 210.146 207.036 210.146 208.068C210.146 209.1 209.93 210 209.498 210.768C209.078 211.524 208.49 212.106 207.734 212.514C206.99 212.922 206.144 213.126 205.196 213.126C204.248 213.126 203.396 212.922 202.64 212.514C201.896 212.106 201.308 211.524 200.876 210.768C200.444 210 200.228 209.1 200.228 208.068C200.228 207.036 200.444 206.136 200.876 205.368C201.308 204.6 201.896 204.012 202.64 203.604C203.396 203.196 204.248 202.992 205.196 202.992ZM205.196 204.432C204.608 204.432 204.062 204.564 203.558 204.828C203.066 205.092 202.664 205.5 202.352 206.052C202.052 206.592 201.902 207.264 201.902 208.068C201.902 208.86 202.052 209.532 202.352 210.084C202.664 210.624 203.066 211.026 203.558 211.29C204.062 211.554 204.608 211.686 205.196 211.686C205.784 211.686 206.324 211.554 206.816 211.29C207.32 211.026 207.722 210.624 208.022 210.084C208.334 209.532 208.49 208.86 208.49 208.068C208.49 207.264 208.334 206.592 208.022 206.052C207.722 205.5 207.32 205.092 206.816 204.828C206.324 204.564 205.784 204.432 205.196 204.432ZM221.244 203.118V213H219.606V210.678C219.354 211.482 218.904 212.1 218.256 212.532C217.62 212.952 216.876 213.162 216.024 213.162C214.884 213.162 213.96 212.796 213.252 212.064C212.544 211.32 212.19 210.258 212.19 208.878V203.118H213.828V208.716C213.828 209.7 214.08 210.462 214.584 211.002C215.088 211.53 215.772 211.794 216.636 211.794C217.536 211.794 218.256 211.506 218.796 210.93C219.336 210.342 219.606 209.49 219.606 208.374V203.118H221.244ZM225.686 205.116C226.01 204.432 226.484 203.904 227.108 203.532C227.732 203.148 228.476 202.956 229.34 202.956V204.738H228.836C227.912 204.738 227.156 204.978 226.568 205.458C225.98 205.926 225.686 206.706 225.686 207.798V213H224.048V203.118H225.686V205.116ZM241.218 202.992C242.094 202.992 242.874 203.196 243.558 203.604C244.242 204.012 244.776 204.6 245.16 205.368C245.556 206.136 245.754 207.036 245.754 208.068C245.754 209.1 245.556 210 245.16 210.768C244.776 211.524 244.242 212.106 243.558 212.514C242.874 212.922 242.094 213.126 241.218 213.126C240.258 213.126 239.442 212.886 238.77 212.406C238.11 211.914 237.654 211.272 237.402 210.48V213H235.764V199.68H237.402V205.638C237.654 204.846 238.11 204.21 238.77 203.73C239.442 203.238 240.258 202.992 241.218 202.992ZM240.75 204.45C240.114 204.45 239.538 204.6 239.022 204.9C238.506 205.188 238.104 205.608 237.816 206.16C237.528 206.712 237.384 207.348 237.384 208.068C237.384 208.788 237.528 209.424 237.816 209.976C238.104 210.516 238.506 210.936 239.022 211.236C239.538 211.536 240.114 211.686 240.75 211.686C241.77 211.686 242.58 211.368 243.18 210.732C243.792 210.084 244.098 209.196 244.098 208.068C244.098 206.94 243.792 206.058 243.18 205.422C242.58 204.774 241.77 204.45 240.75 204.45ZM256.857 203.118V213H255.219V210.678C254.967 211.482 254.517 212.1 253.869 212.532C253.233 212.952 252.489 213.162 251.637 213.162C250.497 213.162 249.573 212.796 248.865 212.064C248.157 211.32 247.803 210.258 247.803 208.878V203.118H249.441V208.716C249.441 209.7 249.693 210.462 250.197 211.002C250.701 211.53 251.385 211.794 252.249 211.794C253.149 211.794 253.869 211.506 254.409 210.93C254.949 210.342 255.219 209.49 255.219 208.374V203.118H256.857ZM262.757 202.992C263.873 202.992 264.767 203.286 265.439 203.874C266.123 204.45 266.537 205.23 266.681 206.214H265.115C265.043 205.626 264.797 205.146 264.377 204.774C263.969 204.39 263.417 204.198 262.721 204.198C262.133 204.198 261.671 204.342 261.335 204.63C261.011 204.906 260.849 205.284 260.849 205.764C260.849 206.124 260.957 206.418 261.173 206.646C261.401 206.862 261.677 207.03 262.001 207.15C262.337 207.258 262.793 207.378 263.369 207.51C264.101 207.678 264.689 207.852 265.133 208.032C265.589 208.2 265.973 208.476 266.285 208.86C266.609 209.244 266.771 209.76 266.771 210.408C266.771 211.212 266.465 211.866 265.853 212.37C265.253 212.874 264.449 213.126 263.441 213.126C262.265 213.126 261.305 212.844 260.561 212.28C259.817 211.716 259.379 210.93 259.247 209.922H260.831C260.891 210.522 261.149 211.008 261.605 211.38C262.073 211.752 262.685 211.938 263.441 211.938C264.005 211.938 264.443 211.794 264.755 211.506C265.079 211.218 265.241 210.84 265.241 210.372C265.241 209.988 265.127 209.682 264.899 209.454C264.671 209.226 264.389 209.052 264.053 208.932C263.717 208.812 263.255 208.686 262.667 208.554C261.935 208.386 261.347 208.218 260.903 208.05C260.471 207.882 260.099 207.618 259.787 207.258C259.487 206.886 259.337 206.388 259.337 205.764C259.337 204.936 259.643 204.27 260.255 203.766C260.867 203.25 261.701 202.992 262.757 202.992ZM268.852 200.22C268.852 199.92 268.954 199.68 269.158 199.5C269.362 199.308 269.632 199.212 269.968 199.212C270.304 199.212 270.574 199.308 270.778 199.5C270.982 199.68 271.084 199.92 271.084 200.22C271.084 200.52 270.982 200.766 270.778 200.958C270.574 201.138 270.304 201.228 269.968 201.228C269.632 201.228 269.362 201.138 269.158 200.958C268.954 200.766 268.852 200.52 268.852 200.22ZM270.778 203.118V213H269.14V203.118H270.778ZM278.793 202.956C279.945 202.956 280.875 203.328 281.583 204.072C282.291 204.804 282.645 205.866 282.645 207.258V213H281.007V207.402C281.007 206.418 280.755 205.662 280.251 205.134C279.747 204.606 279.063 204.342 278.199 204.342C277.299 204.342 276.579 204.636 276.039 205.224C275.499 205.8 275.229 206.646 275.229 207.762V213H273.591V203.118H275.229V205.458C275.481 204.654 275.925 204.036 276.561 203.604C277.209 203.172 277.953 202.956 278.793 202.956ZM294.428 207.51C294.428 207.858 294.404 208.158 294.356 208.41H286.454C286.49 209.538 286.808 210.384 287.408 210.948C288.02 211.512 288.764 211.794 289.64 211.794C290.432 211.794 291.092 211.596 291.62 211.2C292.16 210.792 292.49 210.252 292.61 209.58H294.356C294.236 210.264 293.966 210.876 293.546 211.416C293.138 211.956 292.604 212.376 291.944 212.676C291.284 212.976 290.54 213.126 289.712 213.126C288.764 213.126 287.924 212.922 287.192 212.514C286.46 212.106 285.884 211.524 285.464 210.768C285.056 210 284.852 209.1 284.852 208.068C284.852 207.036 285.056 206.136 285.464 205.368C285.884 204.6 286.46 204.012 287.192 203.604C287.924 203.196 288.764 202.992 289.712 202.992C290.672 202.992 291.506 203.196 292.214 203.604C292.934 204.012 293.48 204.558 293.852 205.242C294.236 205.926 294.428 206.682 294.428 207.51ZM292.772 207.618C292.808 206.886 292.688 206.274 292.412 205.782C292.136 205.29 291.758 204.924 291.278 204.684C290.798 204.444 290.276 204.324 289.712 204.324C288.812 204.324 288.056 204.606 287.444 205.17C286.832 205.722 286.502 206.538 286.454 207.618H292.772ZM299.846 202.992C300.962 202.992 301.856 203.286 302.528 203.874C303.212 204.45 303.626 205.23 303.77 206.214H302.204C302.132 205.626 301.886 205.146 301.466 204.774C301.058 204.39 300.506 204.198 299.81 204.198C299.222 204.198 298.76 204.342 298.424 204.63C298.1 204.906 297.938 205.284 297.938 205.764C297.938 206.124 298.046 206.418 298.262 206.646C298.49 206.862 298.766 207.03 299.09 207.15C299.426 207.258 299.882 207.378 300.458 207.51C301.19 207.678 301.778 207.852 302.222 208.032C302.678 208.2 303.062 208.476 303.374 208.86C303.698 209.244 303.86 209.76 303.86 210.408C303.86 211.212 303.554 211.866 302.942 212.37C302.342 212.874 301.538 213.126 300.53 213.126C299.354 213.126 298.394 212.844 297.65 212.28C296.906 211.716 296.468 210.93 296.336 209.922H297.92C297.98 210.522 298.238 211.008 298.694 211.38C299.162 211.752 299.774 211.938 300.53 211.938C301.094 211.938 301.532 211.794 301.844 211.506C302.168 211.218 302.33 210.84 302.33 210.372C302.33 209.988 302.216 209.682 301.988 209.454C301.76 209.226 301.478 209.052 301.142 208.932C300.806 208.812 300.344 208.686 299.756 208.554C299.024 208.386 298.436 208.218 297.992 208.05C297.56 207.882 297.188 207.618 296.876 207.258C296.576 206.886 296.426 206.388 296.426 205.764C296.426 204.936 296.732 204.27 297.344 203.766C297.956 203.25 298.79 202.992 299.846 202.992ZM309.325 202.992C310.441 202.992 311.335 203.286 312.007 203.874C312.691 204.45 313.105 205.23 313.249 206.214H311.683C311.611 205.626 311.365 205.146 310.945 204.774C310.537 204.39 309.985 204.198 309.289 204.198C308.701 204.198 308.239 204.342 307.903 204.63C307.579 204.906 307.417 205.284 307.417 205.764C307.417 206.124 307.525 206.418 307.741 206.646C307.969 206.862 308.245 207.03 308.569 207.15C308.905 207.258 309.361 207.378 309.937 207.51C310.669 207.678 311.257 207.852 311.701 208.032C312.157 208.2 312.541 208.476 312.853 208.86C313.177 209.244 313.339 209.76 313.339 210.408C313.339 211.212 313.033 211.866 312.421 212.37C311.821 212.874 311.017 213.126 310.009 213.126C308.833 213.126 307.873 212.844 307.129 212.28C306.385 211.716 305.947 210.93 305.815 209.922H307.399C307.459 210.522 307.717 211.008 308.173 211.38C308.641 211.752 309.253 211.938 310.009 211.938C310.573 211.938 311.011 211.794 311.323 211.506C311.647 211.218 311.809 210.84 311.809 210.372C311.809 209.988 311.695 209.682 311.467 209.454C311.239 209.226 310.957 209.052 310.621 208.932C310.285 208.812 309.823 208.686 309.235 208.554C308.503 208.386 307.915 208.218 307.471 208.05C307.039 207.882 306.667 207.618 306.355 207.258C306.055 206.886 305.905 206.388 305.905 205.764C305.905 204.936 306.211 204.27 306.823 203.766C307.435 203.25 308.269 202.992 309.325 202.992ZM324.385 202.992C325.345 202.992 326.155 203.232 326.815 203.712C327.487 204.192 327.955 204.834 328.219 205.638V203.118H329.857V213H328.219V210.48C327.955 211.284 327.487 211.926 326.815 212.406C326.155 212.886 325.345 213.126 324.385 213.126C323.509 213.126 322.729 212.922 322.045 212.514C321.361 212.106 320.821 211.524 320.425 210.768C320.041 210 319.849 209.1 319.849 208.068C319.849 207.036 320.041 206.136 320.425 205.368C320.821 204.6 321.361 204.012 322.045 203.604C322.729 203.196 323.509 202.992 324.385 202.992ZM324.853 204.45C323.845 204.45 323.035 204.774 322.423 205.422C321.823 206.058 321.523 206.94 321.523 208.068C321.523 209.196 321.823 210.084 322.423 210.732C323.035 211.368 323.845 211.686 324.853 211.686C325.501 211.686 326.077 211.536 326.581 211.236C327.097 210.936 327.499 210.516 327.787 209.976C328.075 209.424 328.219 208.788 328.219 208.068C328.219 207.348 328.075 206.712 327.787 206.16C327.499 205.608 327.097 205.188 326.581 204.9C326.077 204.6 325.501 204.45 324.853 204.45ZM337.846 202.956C338.998 202.956 339.928 203.328 340.636 204.072C341.344 204.804 341.698 205.866 341.698 207.258V213H340.06V207.402C340.06 206.418 339.808 205.662 339.304 205.134C338.8 204.606 338.116 204.342 337.252 204.342C336.352 204.342 335.632 204.636 335.092 205.224C334.552 205.8 334.282 206.646 334.282 207.762V213H332.644V203.118H334.282V205.458C334.534 204.654 334.978 204.036 335.614 203.604C336.262 203.172 337.006 202.956 337.846 202.956ZM345.074 203.118L348.278 210.894L351.248 203.118H353.066L347.198 217.68H345.344L347.396 212.838L343.238 203.118H345.074ZM368.32 203.118L365.476 213H363.712L360.994 204.954L358.258 213H356.476L353.668 203.118H355.324L357.43 211.434L360.166 203.118H361.876L364.63 211.416L366.754 203.118H368.32ZM375.23 202.956C376.382 202.956 377.312 203.328 378.02 204.072C378.728 204.804 379.082 205.866 379.082 207.258V213H377.444V207.402C377.444 206.418 377.192 205.662 376.688 205.134C376.184 204.606 375.5 204.342 374.636 204.342C373.736 204.342 373.016 204.636 372.476 205.224C371.936 205.8 371.666 206.646 371.666 207.762V213H370.028V199.68H371.666V205.458C371.918 204.654 372.362 204.036 372.998 203.604C373.646 203.172 374.39 202.956 375.23 202.956ZM390.864 207.51C390.864 207.858 390.84 208.158 390.792 208.41H382.89C382.926 209.538 383.244 210.384 383.844 210.948C384.456 211.512 385.2 211.794 386.076 211.794C386.868 211.794 387.528 211.596 388.056 211.2C388.596 210.792 388.926 210.252 389.046 209.58H390.792C390.672 210.264 390.402 210.876 389.982 211.416C389.574 211.956 389.04 212.376 388.38 212.676C387.72 212.976 386.976 213.126 386.148 213.126C385.2 213.126 384.36 212.922 383.628 212.514C382.896 212.106 382.32 211.524 381.9 210.768C381.492 210 381.288 209.1 381.288 208.068C381.288 207.036 381.492 206.136 381.9 205.368C382.32 204.6 382.896 204.012 383.628 203.604C384.36 203.196 385.2 202.992 386.148 202.992C387.108 202.992 387.942 203.196 388.65 203.604C389.37 204.012 389.916 204.558 390.288 205.242C390.672 205.926 390.864 206.682 390.864 207.51ZM389.208 207.618C389.244 206.886 389.124 206.274 388.848 205.782C388.572 205.29 388.194 204.924 387.714 204.684C387.234 204.444 386.712 204.324 386.148 204.324C385.248 204.324 384.492 204.606 383.88 205.17C383.268 205.722 382.938 206.538 382.89 207.618H389.208ZM394.824 205.116C395.148 204.432 395.622 203.904 396.246 203.532C396.87 203.148 397.614 202.956 398.478 202.956V204.738H397.974C397.05 204.738 396.294 204.978 395.706 205.458C395.118 205.926 394.824 206.706 394.824 207.798V213H393.186V203.118H394.824V205.116ZM409.365 207.51C409.365 207.858 409.341 208.158 409.293 208.41H401.391C401.427 209.538 401.745 210.384 402.345 210.948C402.957 211.512 403.701 211.794 404.577 211.794C405.369 211.794 406.029 211.596 406.557 211.2C407.097 210.792 407.427 210.252 407.547 209.58H409.293C409.173 210.264 408.903 210.876 408.483 211.416C408.075 211.956 407.541 212.376 406.881 212.676C406.221 212.976 405.477 213.126 404.649 213.126C403.701 213.126 402.861 212.922 402.129 212.514C401.397 212.106 400.821 211.524 400.401 210.768C399.993 210 399.789 209.1 399.789 208.068C399.789 207.036 399.993 206.136 400.401 205.368C400.821 204.6 401.397 204.012 402.129 203.604C402.861 203.196 403.701 202.992 404.649 202.992C405.609 202.992 406.443 203.196 407.151 203.604C407.871 204.012 408.417 204.558 408.789 205.242C409.173 205.926 409.365 206.682 409.365 207.51ZM407.709 207.618C407.745 206.886 407.625 206.274 407.349 205.782C407.073 205.29 406.695 204.924 406.215 204.684C405.735 204.444 405.213 204.324 404.649 204.324C403.749 204.324 402.993 204.606 402.381 205.17C401.769 205.722 401.439 206.538 401.391 207.618H407.709ZM420.796 202.992C421.744 202.992 422.59 203.196 423.334 203.604C424.09 204.012 424.678 204.6 425.098 205.368C425.53 206.136 425.746 207.036 425.746 208.068C425.746 209.1 425.53 210 425.098 210.768C424.678 211.524 424.09 212.106 423.334 212.514C422.59 212.922 421.744 213.126 420.796 213.126C419.848 213.126 418.996 212.922 418.24 212.514C417.496 212.106 416.908 211.524 416.476 210.768C416.044 210 415.828 209.1 415.828 208.068C415.828 207.036 416.044 206.136 416.476 205.368C416.908 204.6 417.496 204.012 418.24 203.604C418.996 203.196 419.848 202.992 420.796 202.992ZM420.796 204.432C420.208 204.432 419.662 204.564 419.158 204.828C418.666 205.092 418.264 205.5 417.952 206.052C417.652 206.592 417.502 207.264 417.502 208.068C417.502 208.86 417.652 209.532 417.952 210.084C418.264 210.624 418.666 211.026 419.158 211.29C419.662 211.554 420.208 211.686 420.796 211.686C421.384 211.686 421.924 211.554 422.416 211.29C422.92 211.026 423.322 210.624 423.622 210.084C423.934 209.532 424.09 208.86 424.09 208.068C424.09 207.264 423.934 206.592 423.622 206.052C423.322 205.5 422.92 205.092 422.416 204.828C421.924 204.564 421.384 204.432 420.796 204.432ZM433.263 202.956C434.415 202.956 435.345 203.328 436.053 204.072C436.761 204.804 437.115 205.866 437.115 207.258V213H435.477V207.402C435.477 206.418 435.225 205.662 434.721 205.134C434.217 204.606 433.533 204.342 432.669 204.342C431.769 204.342 431.049 204.636 430.509 205.224C429.969 205.8 429.699 206.646 429.699 207.762V213H428.061V203.118H429.699V205.458C429.951 204.654 430.395 204.036 431.031 203.604C431.679 203.172 432.423 202.956 433.263 202.956ZM449.15 211.56V213H447.926C446.918 213 446.162 212.76 445.658 212.28C445.166 211.8 444.92 210.996 444.92 209.868V204.54H443.444V203.118H444.92V200.652H446.576V203.118H449.132V204.54H446.576V209.904C446.576 210.54 446.69 210.978 446.918 211.218C447.158 211.446 447.566 211.56 448.142 211.56H449.15ZM456.531 202.956C457.683 202.956 458.613 203.328 459.321 204.072C460.029 204.804 460.383 205.866 460.383 207.258V213H458.745V207.402C458.745 206.418 458.493 205.662 457.989 205.134C457.485 204.606 456.801 204.342 455.937 204.342C455.037 204.342 454.317 204.636 453.777 205.224C453.237 205.8 452.967 206.646 452.967 207.762V213H451.329V199.68H452.967V205.458C453.219 204.654 453.663 204.036 454.299 203.604C454.947 203.172 455.691 202.956 456.531 202.956ZM472.166 207.51C472.166 207.858 472.142 208.158 472.094 208.41H464.192C464.228 209.538 464.546 210.384 465.146 210.948C465.758 211.512 466.502 211.794 467.378 211.794C468.17 211.794 468.83 211.596 469.358 211.2C469.898 210.792 470.228 210.252 470.348 209.58H472.094C471.974 210.264 471.704 210.876 471.284 211.416C470.876 211.956 470.342 212.376 469.682 212.676C469.022 212.976 468.278 213.126 467.45 213.126C466.502 213.126 465.662 212.922 464.93 212.514C464.198 212.106 463.622 211.524 463.202 210.768C462.794 210 462.59 209.1 462.59 208.068C462.59 207.036 462.794 206.136 463.202 205.368C463.622 204.6 464.198 204.012 464.93 203.604C465.662 203.196 466.502 202.992 467.45 202.992C468.41 202.992 469.244 203.196 469.952 203.604C470.672 204.012 471.218 204.558 471.59 205.242C471.974 205.926 472.166 206.682 472.166 207.51ZM470.51 207.618C470.546 206.886 470.426 206.274 470.15 205.782C469.874 205.29 469.496 204.924 469.016 204.684C468.536 204.444 468.014 204.324 467.45 204.324C466.55 204.324 465.794 204.606 465.182 205.17C464.57 205.722 464.24 206.538 464.192 207.618H470.51ZM484.569 202.992C485.445 202.992 486.225 203.196 486.909 203.604C487.593 204.012 488.127 204.6 488.511 205.368C488.907 206.136 489.105 207.036 489.105 208.068C489.105 209.1 488.907 210 488.511 210.768C488.127 211.524 487.593 212.106 486.909 212.514C486.225 212.922 485.445 213.126 484.569 213.126C483.609 213.126 482.793 212.886 482.121 212.406C481.461 211.914 481.005 211.272 480.753 210.48V217.68H479.115V203.118H480.753V205.638C481.005 204.846 481.461 204.21 482.121 203.73C482.793 203.238 483.609 202.992 484.569 202.992ZM484.101 204.45C483.465 204.45 482.889 204.6 482.373 204.9C481.857 205.188 481.455 205.608 481.167 206.16C480.879 206.712 480.735 207.348 480.735 208.068C480.735 208.788 480.879 209.424 481.167 209.976C481.455 210.516 481.857 210.936 482.373 211.236C482.889 211.536 483.465 211.686 484.101 211.686C485.121 211.686 485.931 211.368 486.531 210.732C487.143 210.084 487.449 209.196 487.449 208.068C487.449 206.94 487.143 206.058 486.531 205.422C485.931 204.774 485.121 204.45 484.101 204.45ZM493.062 199.68V213H491.424V199.68H493.062ZM499.926 202.992C500.886 202.992 501.696 203.232 502.356 203.712C503.028 204.192 503.496 204.834 503.76 205.638V203.118H505.398V213H503.76V210.48C503.496 211.284 503.028 211.926 502.356 212.406C501.696 212.886 500.886 213.126 499.926 213.126C499.05 213.126 498.27 212.922 497.586 212.514C496.902 212.106 496.362 211.524 495.966 210.768C495.582 210 495.39 209.1 495.39 208.068C495.39 207.036 495.582 206.136 495.966 205.368C496.362 204.6 496.902 204.012 497.586 203.604C498.27 203.196 499.05 202.992 499.926 202.992ZM500.394 204.45C499.386 204.45 498.576 204.774 497.964 205.422C497.364 206.058 497.064 206.94 497.064 208.068C497.064 209.196 497.364 210.084 497.964 210.732C498.576 211.368 499.386 211.686 500.394 211.686C501.042 211.686 501.618 211.536 502.122 211.236C502.638 210.936 503.04 210.516 503.328 209.976C503.616 209.424 503.76 208.788 503.76 208.068C503.76 207.348 503.616 206.712 503.328 206.16C503.04 205.608 502.638 205.188 502.122 204.9C501.618 204.6 501.042 204.45 500.394 204.45ZM513.387 202.956C514.539 202.956 515.469 203.328 516.177 204.072C516.885 204.804 517.239 205.866 517.239 207.258V213H515.601V207.402C515.601 206.418 515.349 205.662 514.845 205.134C514.341 204.606 513.657 204.342 512.793 204.342C511.893 204.342 511.173 204.636 510.633 205.224C510.093 205.8 509.823 206.646 509.823 207.762V213H508.185V203.118H509.823V205.458C510.075 204.654 510.519 204.036 511.155 203.604C511.803 203.172 512.547 202.956 513.387 202.956ZM529.021 207.51C529.021 207.858 528.997 208.158 528.949 208.41H521.047C521.083 209.538 521.401 210.384 522.001 210.948C522.613 211.512 523.357 211.794 524.233 211.794C525.025 211.794 525.685 211.596 526.213 211.2C526.753 210.792 527.083 210.252 527.203 209.58H528.949C528.829 210.264 528.559 210.876 528.139 211.416C527.731 211.956 527.197 212.376 526.537 212.676C525.877 212.976 525.133 213.126 524.305 213.126C523.357 213.126 522.517 212.922 521.785 212.514C521.053 212.106 520.477 211.524 520.057 210.768C519.649 210 519.445 209.1 519.445 208.068C519.445 207.036 519.649 206.136 520.057 205.368C520.477 204.6 521.053 204.012 521.785 203.604C522.517 203.196 523.357 202.992 524.305 202.992C525.265 202.992 526.099 203.196 526.807 203.604C527.527 204.012 528.073 204.558 528.445 205.242C528.829 205.926 529.021 206.682 529.021 207.51ZM527.365 207.618C527.401 206.886 527.281 206.274 527.005 205.782C526.729 205.29 526.351 204.924 525.871 204.684C525.391 204.444 524.869 204.324 524.305 204.324C523.405 204.324 522.649 204.606 522.037 205.17C521.425 205.722 521.095 206.538 521.047 207.618H527.365ZM536.059 211.56V213H534.835C533.827 213 533.071 212.76 532.567 212.28C532.075 211.8 531.829 210.996 531.829 209.868V204.54H530.353V203.118H531.829V200.652H533.485V203.118H536.041V204.54H533.485V209.904C533.485 210.54 533.599 210.978 533.827 211.218C534.067 211.446 534.475 211.56 535.051 211.56H536.059ZM539.444 211.074V213H537.464V211.074H539.444Z" fill="white" fill-opacity="0.7"/>
<rect x="900" y="123" width="170" height="64" rx="10" fill="url(#paint1_linear_310_658)"/>
<path d="M940.056 149.184C941.568 149.184 942.828 149.556 943.836 150.3C944.844 151.044 945.51 152.058 945.834 153.342H943.674C943.398 152.658 942.942 152.112 942.306 151.704C941.682 151.296 940.938 151.092 940.074 151.092C939.282 151.092 938.568 151.278 937.932 151.65C937.308 152.022 936.816 152.55 936.456 153.234C936.108 153.918 935.934 154.722 935.934 155.646C935.934 156.618 936.114 157.452 936.474 158.148C936.834 158.844 937.338 159.378 937.986 159.75C938.646 160.11 939.408 160.29 940.272 160.29C941.328 160.29 942.234 159.966 942.99 159.318C943.746 158.658 944.202 157.758 944.358 156.618H939.696V155.106H946.086V157.068C945.942 158.004 945.606 158.856 945.078 159.624C944.562 160.38 943.872 160.986 943.008 161.442C942.156 161.898 941.178 162.126 940.074 162.126C938.838 162.126 937.746 161.85 936.798 161.298C935.85 160.746 935.118 159.984 934.602 159.012C934.086 158.028 933.828 156.906 933.828 155.646C933.828 154.386 934.086 153.27 934.602 152.298C935.118 151.314 935.844 150.552 936.78 150.012C937.728 149.46 938.82 149.184 940.056 149.184ZM957.38 156.564C957.38 156.9 957.356 157.194 957.308 157.446H949.676C949.712 158.466 949.994 159.222 950.522 159.714C951.05 160.206 951.704 160.452 952.484 160.452C953.168 160.452 953.744 160.278 954.212 159.93C954.692 159.582 954.986 159.12 955.094 158.544H957.29C957.158 159.24 956.882 159.858 956.462 160.398C956.042 160.938 955.496 161.364 954.824 161.676C954.152 161.976 953.402 162.126 952.574 162.126C951.614 162.126 950.762 161.922 950.018 161.514C949.286 161.106 948.71 160.518 948.29 159.75C947.87 158.982 947.66 158.076 947.66 157.032C947.66 156 947.87 155.1 948.29 154.332C948.71 153.564 949.286 152.976 950.018 152.568C950.762 152.16 951.614 151.956 952.574 151.956C953.546 151.956 954.392 152.16 955.112 152.568C955.844 152.964 956.402 153.516 956.786 154.224C957.182 154.92 957.38 155.7 957.38 156.564ZM955.31 156.51C955.334 155.862 955.22 155.322 954.968 154.89C954.728 154.446 954.392 154.122 953.96 153.918C953.54 153.702 953.078 153.594 952.574 153.594C951.77 153.594 951.098 153.84 950.558 154.332C950.018 154.824 949.724 155.55 949.676 156.51H955.31ZM964.347 160.218V162H963.087C962.031 162 961.227 161.748 960.675 161.244C960.135 160.728 959.865 159.876 959.865 158.688V153.828H958.443V152.082H959.865V149.616H961.935V152.082H964.329V153.828H961.935V158.724C961.935 159.288 962.037 159.678 962.241 159.894C962.457 160.11 962.829 160.218 963.357 160.218H964.347ZM978.84 158.616C978.84 159.24 978.69 159.822 978.39 160.362C978.09 160.89 977.634 161.316 977.022 161.64C976.41 161.964 975.66 162.126 974.772 162.126C973.908 162.126 973.134 161.976 972.45 161.676C971.766 161.364 971.22 160.932 970.812 160.38C970.404 159.828 970.17 159.192 970.11 158.472H972.306C972.366 159.024 972.6 159.498 973.008 159.894C973.428 160.29 973.986 160.488 974.682 160.488C975.306 160.488 975.786 160.32 976.122 159.984C976.47 159.648 976.644 159.216 976.644 158.688C976.644 158.232 976.518 157.86 976.266 157.572C976.014 157.272 975.702 157.038 975.33 156.87C974.958 156.702 974.448 156.51 973.8 156.294C973.008 156.042 972.36 155.79 971.856 155.538C971.364 155.286 970.944 154.92 970.596 154.44C970.248 153.96 970.074 153.33 970.074 152.55C970.074 151.866 970.242 151.266 970.578 150.75C970.914 150.234 971.394 149.838 972.018 149.562C972.642 149.274 973.362 149.13 974.178 149.13C975.474 149.13 976.5 149.442 977.256 150.066C978.024 150.69 978.462 151.506 978.57 152.514H976.356C976.272 152.034 976.044 151.626 975.672 151.29C975.312 150.942 974.814 150.768 974.178 150.768C973.602 150.768 973.14 150.918 972.792 151.218C972.444 151.506 972.27 151.926 972.27 152.478C972.27 152.91 972.39 153.27 972.63 153.558C972.87 153.834 973.17 154.056 973.53 154.224C973.902 154.38 974.406 154.566 975.042 154.782C975.846 155.034 976.5 155.292 977.004 155.556C977.52 155.808 977.952 156.18 978.3 156.672C978.66 157.164 978.84 157.812 978.84 158.616ZM985.88 160.218V162H984.62C983.564 162 982.76 161.748 982.208 161.244C981.668 160.728 981.398 159.876 981.398 158.688V153.828H979.976V152.082H981.398V149.616H983.468V152.082H985.862V153.828H983.468V158.724C983.468 159.288 983.57 159.678 983.774 159.894C983.99 160.11 984.362 160.218 984.89 160.218H985.88ZM991.781 151.956C992.681 151.956 993.449 152.178 994.085 152.622C994.721 153.066 995.171 153.654 995.435 154.386V152.082H997.487V162H995.435V159.696C995.171 160.428 994.721 161.016 994.085 161.46C993.449 161.904 992.681 162.126 991.781 162.126C990.917 162.126 990.143 161.922 989.459 161.514C988.787 161.106 988.259 160.518 987.875 159.75C987.491 158.982 987.299 158.076 987.299 157.032C987.299 156 987.491 155.1 987.875 154.332C988.259 153.564 988.787 152.976 989.459 152.568C990.143 152.16 990.917 151.956 991.781 151.956ZM992.411 153.756C991.499 153.756 990.767 154.05 990.215 154.638C989.675 155.214 989.405 156.012 989.405 157.032C989.405 158.052 989.675 158.856 990.215 159.444C990.767 160.02 991.499 160.308 992.411 160.308C992.987 160.308 993.503 160.176 993.959 159.912C994.415 159.636 994.775 159.252 995.039 158.76C995.303 158.268 995.435 157.692 995.435 157.032C995.435 156.384 995.303 155.814 995.039 155.322C994.775 154.818 994.415 154.434 993.959 154.17C993.503 153.894 992.987 153.756 992.411 153.756ZM1002 154.026C1002.34 153.378 1002.82 152.868 1003.44 152.496C1004.07 152.112 1004.79 151.92 1005.6 151.92V154.152H1004.99C1004.09 154.152 1003.36 154.374 1002.81 154.818C1002.27 155.25 1002 155.97 1002 156.978V162H999.949V152.082H1002V154.026ZM1012.12 160.218V162H1010.86C1009.81 162 1009 161.748 1008.45 161.244C1007.91 160.728 1007.64 159.876 1007.64 158.688V153.828H1006.22V152.082H1007.64V149.616H1009.71V152.082H1012.11V153.828H1009.71V158.724C1009.71 159.288 1009.81 159.678 1010.02 159.894C1010.23 160.11 1010.61 160.218 1011.13 160.218H1012.12ZM1023.26 156.564C1023.26 156.9 1023.24 157.194 1023.19 157.446H1015.56C1015.59 158.466 1015.88 159.222 1016.4 159.714C1016.93 160.206 1017.59 160.452 1018.37 160.452C1019.05 160.452 1019.63 160.278 1020.09 159.93C1020.57 159.582 1020.87 159.12 1020.98 158.544H1023.17C1023.04 159.24 1022.76 159.858 1022.34 160.398C1021.92 160.938 1021.38 161.364 1020.71 161.676C1020.03 161.976 1019.28 162.126 1018.46 162.126C1017.5 162.126 1016.64 161.922 1015.9 161.514C1015.17 161.106 1014.59 160.518 1014.17 159.75C1013.75 158.982 1013.54 158.076 1013.54 157.032C1013.54 156 1013.75 155.1 1014.17 154.332C1014.59 153.564 1015.17 152.976 1015.9 152.568C1016.64 152.16 1017.5 151.956 1018.46 151.956C1019.43 151.956 1020.27 152.16 1020.99 152.568C1021.73 152.964 1022.28 153.516 1022.67 154.224C1023.06 154.92 1023.26 155.7 1023.26 156.564ZM1021.19 156.51C1021.22 155.862 1021.1 155.322 1020.85 154.89C1020.61 154.446 1020.27 154.122 1019.84 153.918C1019.42 153.702 1018.96 153.594 1018.46 153.594C1017.65 153.594 1016.98 153.84 1016.44 154.332C1015.9 154.824 1015.61 155.55 1015.56 156.51H1021.19ZM1029.22 151.956C1030.12 151.956 1030.89 152.178 1031.53 152.622C1032.16 153.066 1032.61 153.654 1032.86 154.386V148.68H1034.93V162H1032.86V159.696C1032.61 160.428 1032.16 161.016 1031.53 161.46C1030.89 161.904 1030.12 162.126 1029.22 162.126C1028.36 162.126 1027.58 161.922 1026.9 161.514C1026.23 161.106 1025.7 160.518 1025.32 159.75C1024.93 158.982 1024.74 158.076 1024.74 157.032C1024.74 156 1024.93 155.1 1025.32 154.332C1025.7 153.564 1026.23 152.976 1026.9 152.568C1027.58 152.16 1028.36 151.956 1029.22 151.956ZM1029.85 153.756C1028.94 153.756 1028.21 154.05 1027.66 154.638C1027.12 155.214 1026.85 156.012 1026.85 157.032C1026.85 158.052 1027.12 158.856 1027.66 159.444C1028.21 160.02 1028.94 160.308 1029.85 160.308C1030.43 160.308 1030.94 160.176 1031.4 159.912C1031.86 159.636 1032.22 159.252 1032.48 158.76C1032.74 158.268 1032.88 157.692 1032.88 157.032C1032.88 156.384 1032.74 155.814 1032.48 155.322C1032.22 154.818 1031.86 154.434 1031.4 154.17C1030.94 153.894 1030.43 153.756 1029.85 153.756Z" fill="#00040E"/>
<defs>
<filter id="filter0_b_310_658" x="-10" y="-10" width="1190" height="313" filterUnits="userSpaceOnUse" color-interpolation-filters="sRGB">
<feFlood flood-opacity="0" result="BackgroundImageFix"/>
<feGaussianBlur in="BackgroundImageFix" stdDeviation="5"/>
<feComposite in2="SourceAlpha" operator="in" result="effect1_backgroundBlur_310_658"/>
<feBlend mode="normal" in="SourceGraphic" in2="effect1_backgroundBlur_310_658" result="shape"/>
</filter>
<linearGradient id="paint0_linear_310_658" x1="-2471.23" y1="-1347.43" x2="-2051.53" y2="992.219" gradientUnits="userSpaceOnUse">
<stop offset="0.161458" stop-color="white"/>
<stop offset="0.578125" stop-color="#6D6D6D"/>
<stop offset="0.932292" stop-color="#11101D"/>
</linearGradient>
<linearGradient id="paint1_linear_310_658" x1="1013.58" y1="65.5" x2="1031.8" y2="184.121" gradientUnits="userSpaceOnUse">
<stop offset="0.00887753" stop-color="#DEF9FA"/>
<stop offset="0.1723" stop-color="#BEF3F5"/>
<stop offset="0.4204" stop-color="#9DEDF0"/>
<stop offset="0.5512" stop-color="#7DE7EB"/>
<stop offset="0.7154" stop-color="#5CE1E6"/>
<stop offset="1" stop-color="#33BBCF"/>
</linearGradient>
</defs>
</svg>
